<?xml version="1.0" encoding="UTF-8" standalone="no"?>
<!DOCTYPE svg PUBLIC "-//W3C//DTD SVG 1.1//EN" "http://www.w3.org/Graphics/SVG/1.1/DTD/svg11.dtd">
<svg version="1.1" xmlns="http://www.w3.org/2000/svg" xmlns:xlink="http://www.w3.org/1999/xlink" preserveAspectRatio="xMidYMid meet" viewBox="0 0 460 323" width="460" height="323"><defs><path d="M251.51 52.25C251.51 78.16 251.51 92.56 251.51 95.44C251.51 95.44 251.51 95.44 251.51 95.44C223 95.44 207.17 95.44 204 95.44C204 95.44 204 95.44 204 95.44C204 69.52 204 55.12 204 52.25C204 52.25 204 52.25 204 52.25C232.5 52.25 248.34 52.25 251.51 52.25C251.51 52.25 251.51 52.25 251.51 52.25Z" id="aPeFDk4Rd"></path><path d="M251.51 52.25C251.51 78.16 251.51 92.56 251.51 95.44C251.51 95.44 251.51 95.44 251.51 95.44C223 95.44 207.17 95.44 204 95.44C204 95.44 204 95.44 204 95.44C204 69.52 204 55.12 204 52.25C204 52.25 204 52.25 204 52.25C232.5 52.25 248.34 52.25 251.51 52.25C251.51 52.25 251.51 52.25 251.51 52.25Z" id="cedXzWqwU"></path><path d="M251.51 104.14C251.51 129.75 251.51 143.98 251.51 146.83C251.51 146.82 251.51 146.82 251.51 146.83C223 146.82 207.17 146.82 204 146.83C204 146.82 204 146.82 204 146.83C204 121.21 204 106.98 204 104.14C204 104.14 204 104.14 204 104.14C232.5 104.14 248.34 104.14 251.51 104.14C251.51 104.14 251.51 104.14 251.51 104.14Z" id="a5wZMd9xC"></path><path d="M251.51 104.14C251.51 129.75 251.51 143.98 251.51 146.83C251.51 146.82 251.51 146.82 251.51 146.83C223 146.82 207.17 146.82 204 146.83C204 146.82 204 146.82 204 146.83C204 121.21 204 106.98 204 104.14C204 104.14 204 104.14 204 104.14C232.5 104.14 248.34 104.14 251.51 104.14C251.51 104.14 251.51 104.14 251.51 104.14Z" id="gu7mBbwb"></path><path d="M195.38 52.25C195.37 78.16 195.37 92.56 195.38 95.44C195.37 95.44 195.37 95.44 195.38 95.44C166.87 95.44 151.04 95.44 147.87 95.44C147.87 95.44 147.87 95.44 147.87 95.44C147.87 69.52 147.87 55.12 147.87 52.25C147.87 52.25 147.87 52.25 147.87 52.25C176.37 52.25 192.21 52.25 195.38 52.25C195.37 52.25 195.37 52.25 195.38 52.25Z" id="b3YufLlBlP"></path><path d="M195.38 52.25C195.37 78.16 195.37 92.56 195.38 95.44C195.37 95.44 195.37 95.44 195.38 95.44C166.87 95.44 151.04 95.44 147.87 95.44C147.87 95.44 147.87 95.44 147.87 95.44C147.87 69.52 147.87 55.12 147.87 52.25C147.87 52.25 147.87 52.25 147.87 52.25C176.37 52.25 192.21 52.25 195.38 52.25C195.37 52.25 195.37 52.25 195.38 52.25Z" id="baqurDdMY"></path><path d="M307.71 104.06C307.71 129.68 307.71 143.91 307.71 146.75C307.71 146.75 307.71 146.75 307.71 146.75C279.2 146.75 263.37 146.75 260.2 146.75C260.2 146.75 260.2 146.75 260.2 146.75C260.2 121.14 260.2 106.91 260.2 104.06C260.2 104.06 260.2 104.06 260.2 104.06C288.7 104.06 304.54 104.06 307.71 104.06C307.71 104.06 307.71 104.06 307.71 104.06Z" id="grXzQiGn"></path><path d="M307.71 104.06C307.71 129.68 307.71 143.91 307.71 146.75C307.71 146.75 307.71 146.75 307.71 146.75C279.2 146.75 263.37 146.75 260.2 146.75C260.2 146.75 260.2 146.75 260.2 146.75C260.2 121.14 260.2 106.91 260.2 104.06C260.2 104.06 260.2 104.06 260.2 104.06C288.7 104.06 304.54 104.06 307.71 104.06C307.71 104.06 307.71 104.06 307.71 104.06Z" id="cqkBxPa97"></path><path d="M251.51 0C251.51 26.17 251.51 40.71 251.51 43.62C251.51 43.62 251.51 43.62 251.51 43.62C223 43.62 207.17 43.62 204 43.62C204 43.62 204 43.62 204 43.62C204 17.44 204 2.9 204 0C204 0 204 0 204 0C232.5 0 248.34 0 251.51 0C251.51 0 251.51 0 251.51 0Z" id="bEMyYQzBQ"></path><path d="M251.51 0C251.51 26.17 251.51 40.71 251.51 43.62C251.51 43.62 251.51 43.62 251.51 43.62C223 43.62 207.17 43.62 204 43.62C204 43.62 204 43.62 204 43.62C204 17.44 204 2.9 204 0C204 0 204 0 204 0C232.5 0 248.34 0 251.51 0C251.51 0 251.51 0 251.51 0Z" id="hApiDbSTW"></path><path d="M139.24 52.25C139.24 78.16 139.24 92.56 139.24 95.44C139.24 95.44 139.24 95.44 139.24 95.44C110.74 95.44 94.9 95.44 91.74 95.44C91.74 95.44 91.74 95.44 91.74 95.44C91.74 69.52 91.74 55.12 91.74 52.25C91.74 52.25 91.74 52.25 91.74 52.25C120.24 52.25 136.08 52.25 139.24 52.25C139.24 52.25 139.24 52.25 139.24 52.25Z" id="b2kTXAVoOo"></path><path d="M139.24 52.25C139.24 78.16 139.24 92.56 139.24 95.44C139.24 95.44 139.24 95.44 139.24 95.44C110.74 95.44 94.9 95.44 91.74 95.44C91.74 95.44 91.74 95.44 91.74 95.44C91.74 69.52 91.74 55.12 91.74 52.25C91.74 52.25 91.74 52.25 91.74 52.25C120.24 52.25 136.08 52.25 139.24 52.25C139.24 52.25 139.24 52.25 139.24 52.25Z" id="i2BtWXf2r0"></path><path d="M195.38 104.06C195.37 129.68 195.37 143.91 195.38 146.75C195.37 146.75 195.37 146.75 195.38 146.75C166.87 146.75 151.04 146.75 147.87 146.75C147.87 146.75 147.87 146.75 147.87 146.75C147.87 121.14 147.87 106.91 147.87 104.06C147.87 104.06 147.87 104.06 147.87 104.06C176.37 104.06 192.21 104.06 195.38 104.06C195.37 104.06 195.37 104.06 195.38 104.06Z" id="b1qtpc2CoC"></path><path d="M195.38 104.06C195.37 129.68 195.37 143.91 195.38 146.75C195.37 146.75 195.37 146.75 195.38 146.75C166.87 146.75 151.04 146.75 147.87 146.75C147.87 146.75 147.87 146.75 147.87 146.75C147.87 121.14 147.87 106.91 147.87 104.06C147.87 104.06 147.87 104.06 147.87 104.06C176.37 104.06 192.21 104.06 195.38 104.06C195.37 104.06 195.37 104.06 195.38 104.06Z" id="a2A6VjCcjM"></path><path d="M368.37 72.3C367.7 71.85 364.34 69.62 358.3 65.61C354.29 71.65 352.06 75 351.62 75.67C338.39 95.65 334.8 128.57 348.96 150.28C342.71 153.65 330.42 158.25 314.17 157.97C282.93 157.97 33 157.97 1.76 157.97C-4.49 194.48 5.93 241.91 33.38 274.47C60.04 306.02 100 322.05 152.25 322.05C265.38 322.05 349.1 269.94 388.27 175.29C403.66 175.57 436.86 175.36 453.89 142.8C454.97 141.01 458.64 133.31 460 130.51C459.36 130.08 456.18 127.95 450.44 124.12C427.63 117.79 410.12 115.78 397.9 118.08C395.53 100.83 385.9 85.81 368.37 72.3Z" id="c7d3Qq9mZj"></path><path d="M368.37 72.3C367.7 71.85 364.34 69.62 358.3 65.61C354.29 71.65 352.06 75 351.62 75.67C338.39 95.65 334.8 128.57 348.96 150.28C342.71 153.65 330.42 158.25 314.17 157.97C282.93 157.97 33 157.97 1.76 157.97C-4.49 194.48 5.93 241.91 33.38 274.47C60.04 306.02 100 322.05 152.25 322.05C265.38 322.05 349.1 269.94 388.27 175.29C403.66 175.57 436.86 175.36 453.89 142.8C454.97 141.01 458.64 133.31 460 130.51C459.36 130.08 456.18 127.95 450.44 124.12C427.63 117.79 410.12 115.78 397.9 118.08C395.53 100.83 385.9 85.81 368.37 72.3Z" id="aO9rxI5zz"></path><path d="M35.68 104.06L35.68 146.75L83.19 146.75L83.19 104.06L83.11 104.06L35.68 104.06Z" id="b8umVI3NPX"></path><path d="M35.68 104.06L35.68 146.75L83.19 146.75L83.19 104.06L83.11 104.06L35.68 104.06Z" id="eoihNs6fS"></path><path d="M139.24 104.06C139.24 129.68 139.24 143.91 139.24 146.75C139.24 146.75 139.24 146.75 139.24 146.75C110.74 146.75 94.9 146.75 91.74 146.75C91.74 146.75 91.74 146.75 91.74 146.75C91.74 121.14 91.74 106.91 91.74 104.06C91.74 104.06 91.74 104.06 91.74 104.06C120.24 104.06 136.08 104.06 139.24 104.06C139.24 104.06 139.24 104.06 139.24 104.06Z" id="b5J2pRRYyI"></path><path d="M139.24 104.06C139.24 129.68 139.24 143.91 139.24 146.75C139.24 146.75 139.24 146.75 139.24 146.75C110.74 146.75 94.9 146.75 91.74 146.75C91.74 146.75 91.74 146.75 91.74 146.75C91.74 121.14 91.74 106.91 91.74 104.06C91.74 104.06 91.74 104.06 91.74 104.06C120.24 104.06 136.08 104.06 139.24 104.06C139.24 104.06 139.24 104.06 139.24 104.06Z" id="aSACMJjp0"></path></defs><g><g><g><use xlink:href="#aPeFDk4Rd" opacity="1" fill="#ffffff" fill-opacity="1"></use><g><use xlink:href="#aPeFDk4Rd" opacity="1" fill-opacity="0" stroke="#000000" stroke-width="1" stroke-opacity="0"></use></g></g><g><use xlink:href="#cedXzWqwU" opacity="1" fill="#ffffff" fill-opacity="1"></use><g><use xlink:href="#cedXzWqwU" opacity="1" fill-opacity="0" stroke="#000000" stroke-width="1" stroke-opacity="0"></use></g></g><g><use xlink:href="#a5wZMd9xC" opacity="1" fill="#ffffff" fill-opacity="1"></use><g><use xlink:href="#a5wZMd9xC" opacity="1" fill-opacity="0" stroke="#000000" stroke-width="1" stroke-opacity="0"></use></g></g><g><use xlink:href="#gu7mBbwb" opacity="1" fill="#ffffff" fill-opacity="1"></use><g><use xlink:href="#gu7mBbwb" opacity="1" fill-opacity="0" stroke="#000000" stroke-width="1" stroke-opacity="0"></use></g></g><g><use xlink:href="#b3YufLlBlP" opacity="1" fill="#ffffff" fill-opacity="1"></use><g><use xlink:href="#b3YufLlBlP" opacity="1" fill-opacity="0" stroke="#000000" stroke-width="1" stroke-opacity="0"></use></g></g><g><use xlink:href="#baqurDdMY" opacity="1" fill="#ffffff" fill-opacity="1"></use><g><use xlink:href="#baqurDdMY" opacity="1" fill-opacity="0" stroke="#000000" stroke-width="1" stroke-opacity="0"></use></g></g><g><use xlink:href="#grXzQiGn" opacity="1" fill="#ffffff" fill-opacity="1"></use><g><use xlink:href="#grXzQiGn" opacity="1" fill-opacity="0" stroke="#000000" stroke-width="1" stroke-opacity="0"></use></g></g><g><use xlink:href="#cqkBxPa97" opacity="1" fill="#ffffff" fill-opacity="1"></use><g><use xlink:href="#cqkBxPa97" opacity="1" fill-opacity="0" stroke="#000000" stroke-width="1" stroke-opacity="0"></use></g></g><g><use xlink:href="#bEMyYQzBQ" opacity="1" fill="#ffffff" fill-opacity="1"></use><g><use xlink:href="#bEMyYQzBQ" opacity="1" fill-opacity="0" stroke="#000000" stroke-width="1" stroke-opacity="0"></use></g></g><g><use xlink:href="#hApiDbSTW" opacity="1" fill="#ffffff" fill-opacity="1"></use><g><use xlink:href="#hApiDbSTW" opacity="1" fill-opacity="0" stroke="#000000" stroke-width="1" stroke-opacity="0"></use></g></g><g><use xlink:href="#b2kTXAVoOo" opacity="1" fill="#ffffff" fill-opacity="1"></use><g><use xlink:href="#b2kTXAVoOo" opacity="1" fill-opacity="0" stroke="#000000" stroke-width="1" stroke-opacity="0"></use></g></g><g><use xlink:href="#i2BtWXf2r0" opacity="1" fill="#ffffff" fill-opacity="1"></use><g><use xlink:href="#i2BtWXf2r0" opacity="1" fill-opacity="0" stroke="#000000" stroke-width="1" stroke-opacity="0"></use></g></g><g><use xlink:href="#b1qtpc2CoC" opacity="1" fill="#ffffff" fill-opacity="1"></use><g><use xlink:href="#b1qtpc2CoC" opacity="1" fill-opacity="0" stroke="#000000" stroke-width="1" stroke-opacity="0"></use></g></g><g><use xlink:href="#a2A6VjCcjM" opacity="1" fill="#ffffff" fill-opacity="1"></use><g><use xlink:href="#a2A6VjCcjM" opacity="1" fill-opacity="0" stroke="#000000" stroke-width="1" stroke-opacity="0"></use></g></g><g><use xlink:href="#c7d3Qq9mZj" opacity="1" fill="#ffffff" fill-opacity="1"></use><g><use xlink:href="#c7d3Qq9mZj" opacity="1" fill-opacity="0" stroke="#000000" stroke-width="1" stroke-opacity="0"></use></g></g><g><use xlink:href="#aO9rxI5zz" opacity="1" fill="#ffffff" fill-opacity="1"></use><g><use xlink:href="#aO9rxI5zz" opacity="1" fill-opacity="0" stroke="#000000" stroke-width="1" stroke-opacity="0"></use></g></g><g><use xlink:href="#b8umVI3NPX" opacity="1" fill="#ffffff" fill-opacity="1"></use><g><use xlink:href="#b8umVI3NPX" opacity="1" fill-opacity="0" stroke="#000000" stroke-width="1" stroke-opacity="0"></use></g></g><g><use xlink:href="#eoihNs6fS" opacity="1" fill="#ffffff" fill-opacity="1"></use><g><use xlink:href="#eoihNs6fS" opacity="1" fill-opacity="0" stroke="#000000" stroke-width="1" stroke-opacity="0"></use></g></g><g><use xlink:href="#b5J2pRRYyI" opacity="1" fill="#ffffff" fill-opacity="1"></use><g><use xlink:href="#b5J2pRRYyI" opacity="1" fill-opacity="0" stroke="#000000" stroke-width="1" stroke-opacity="0"></use></g></g><g><use xlink:href="#aSACMJjp0" opacity="1" fill="#ffffff" fill-opacity="1"></use><g><use xlink:href="#aSACMJjp0" opacity="1" fill-opacity="0" stroke="#000000" stroke-width="1" stroke-opacity="0"></use></g></g></g></g></svg>